<svg width="124" height="79" viewBox="0 0 124 79" fill="none" xmlns="http://www.w3.org/2000/svg">
<path fill-rule="evenodd" clip-rule="evenodd" d="M122 0C125.436 7.17429 122.619 51.85 74.7143 62.8571C73.7257 63 67.3143 63.0886 63.4286 61.4286C56.71 53.07 57.78 69.5586 56.1428 77.1429C54.9928 79.3814 53.9128 78.8843 53.2857 77.1429C52.94 64.5986 53.27 61.4986 56.1428 55.7143C57.4257 52.5414 56.2828 52.4486 53.4286 50C51.3386 45.0829 52.3243 39.6443 53.2857 35.7143C53.86 33.2771 62.0285 20.5386 70.5714 15.7143C98.71 4.61714 106.047 11.0414 122 0ZM119.143 4.42857C105.427 15.3971 70.2857 6.24 56.2857 35.7143C53.8728 44.3571 58.1914 49.9414 60.4286 47.2857C69.1343 42.95 77.24 34.9543 87.5714 31.4286C79.3614 38.8414 67.0686 46.8771 63.4286 51.4286C63.1214 53.74 61.4714 59.1786 73.4614 58.8129C92.8443 58.2214 114.674 38.7771 119.143 4.42857ZM0.428549 21.5714C3.80855 26.19 20.3643 28.2857 30.4286 31.4286C38.7 34.41 43.8986 37.5757 49 44.4286C50.7028 49.3043 51.6843 55.9486 49 58.7143C46.6414 63.56 49.6971 70.8386 49 74.4286C48.1843 77.7714 46.8386 77.4586 46.1428 74.4286C45.2471 69.8671 46.1928 65.11 41.8571 67.1429C38.3843 68.4743 -1.02002 70.0586 0.428549 21.5714ZM3.28569 27.1429C1.55283 65.2043 50.6414 68.7629 41.8571 58.7143C37.1471 55.9143 30.9485 52.1657 29 47.1429C30.9585 47.8143 44.8186 58.29 46.1428 57.1429C50.3157 49.5186 44.9943 45.1629 42 42.8571C37.1943 33.6814 11.1471 30.5186 3.28569 27.1429Z" fill="#4ECCA3"/>
</svg>
