<svg width="165" height="179" viewBox="0 0 165 179" fill="none" xmlns="http://www.w3.org/2000/svg">
<path d="M76 0C55.6762 0 37.2637 3.6581 23.6102 9.80158C16.7834 12.8733 11.1216 16.5641 7.03051 20.918C2.93939 25.2718 0.400024 30.4442 0.400024 36V140.4C0.400024 160.585 33.61 176.4 76 176.4C88.5784 176.4 100.314 174.978 110.65 172.491C105.336 171.882 100.319 170.3 95.7649 167.934C89.6089 168.734 83.02 169.2 76 169.2C35.086 169.2 7.60002 154.307 7.60002 140.4V123.497C19.4224 135.564 44.735 143.785 74.9102 143.979C74.0822 141.646 73.4575 139.228 73.0399 136.73C33.7855 136.024 7.60006 121.565 7.60006 108V87.4969C19.5629 99.7117 45.3425 108 76.0001 108C76.7633 108 77.5116 107.969 78.2712 107.958C79.8084 105.315 81.6123 102.867 83.6571 100.617C81.1587 100.736 78.6101 100.8 76.0001 100.8C35.0861 100.8 7.60006 85.9068 7.60006 72V51.6164C11.6444 55.7315 17.0734 59.2572 23.6102 62.1984C37.2638 68.3419 55.6763 72 76.0001 72C96.3239 72 114.736 68.3419 128.39 62.1984C134.927 59.2572 140.356 55.7314 144.4 51.6164V72C144.4 77.9292 139.367 84.0279 130.464 89.0859C133.114 90.0615 135.636 91.2914 138.016 92.7422C140.428 91.0898 142.593 89.3437 144.4 87.4969V97.4883C147.129 99.9399 149.566 102.704 151.6 105.771V36C151.6 30.4442 149.061 25.2718 144.97 20.918C140.879 16.5641 135.217 12.8733 128.39 9.80158C114.736 3.65814 96.3238 0 76 0ZM76 7.2C95.449 7.2 113.034 10.7879 125.437 16.3688C131.638 19.1592 136.523 22.4473 139.717 25.8469C142.912 29.2464 144.4 32.6044 144.4 36C144.4 39.3956 142.912 42.7536 139.717 46.1531C136.523 49.5527 131.638 52.8408 125.437 55.6312C113.034 61.2121 95.449 64.8 76 64.8C56.551 64.8 38.9665 61.2121 26.5633 55.6313C20.3617 52.8408 15.4773 49.5527 12.2828 46.1532C9.08844 42.7536 7.60002 39.3957 7.60002 36C7.60002 32.6044 9.08844 29.2465 12.2828 25.8469C15.4772 22.4474 20.3617 19.1592 26.5633 16.3688C38.9665 10.7879 56.551 7.2 76 7.2ZM115.6 93.6C95.7604 93.6 79.6 109.76 79.6 129.6C79.6 149.44 95.7604 165.6 115.6 165.6C124.227 165.6 132.151 162.536 138.36 157.451L159.855 178.945L164.945 173.855L143.451 152.36C148.536 146.151 151.6 138.227 151.6 129.6C151.6 109.76 135.44 93.6 115.6 93.6ZM115.6 100.8C131.548 100.8 144.4 113.652 144.4 129.6C144.4 145.548 131.548 158.4 115.6 158.4C99.6516 158.4 86.8 145.548 86.8 129.6C86.8 113.652 99.6516 100.8 115.6 100.8Z" fill="#2DAC23"/>
</svg>
