<svg width="350" height="350" viewBox="0 0 350 350" fill="none" xmlns="http://www.w3.org/2000/svg">
<path d="M240.352 347.266C235.703 347.266 232.148 343.711 232.148 339.062V328.125C232.148 308.438 248.008 292.578 267.695 292.578H289.57C297.227 292.578 303.242 286.562 303.242 278.906V239.258C303.242 232.695 305.703 226.68 310.078 222.031L317.734 214.375C319.922 212.188 320.469 209.18 319.648 206.172C319.648 205.898 319.375 205.625 319.375 205.352L301.875 121.406C293.945 82.8516 269.883 50.8594 236.25 33.3594C219.844 24.8828 201.797 20.2344 183.203 19.1406V298.047C183.203 302.695 179.648 306.25 175 306.25C170.352 306.25 166.797 302.695 166.797 298.047V10.9375C166.797 8.47657 167.891 6.28907 169.805 4.64844C171.445 3.28125 173.359 2.73438 175.547 2.73438C199.336 2.46094 223.125 7.92969 243.906 18.8672C281.914 38.5547 308.984 74.6484 318.008 118.125L335.508 201.797C337.969 210.273 335.781 219.57 329.492 225.859L321.836 233.516C320.469 235.156 319.648 237.07 319.648 239.258V278.906C319.648 295.586 306.25 308.984 289.57 308.984H267.695C257.031 308.984 248.555 317.461 248.555 328.125V339.062C248.555 343.711 244.727 347.266 240.352 347.266ZM175 347.266C174.453 347.266 173.906 347.266 173.359 346.992C172.812 346.992 172.266 346.719 171.719 346.445C171.172 346.172 170.898 345.898 170.352 345.625C169.805 345.352 169.531 345.078 168.984 344.531C167.344 342.891 166.523 340.977 166.523 338.789C166.523 338.242 166.523 337.695 166.797 337.148C166.797 336.602 167.07 336.055 167.344 335.508C167.617 334.961 167.891 334.688 168.164 334.141C168.437 333.594 168.711 333.32 169.258 333.047C169.805 332.773 170.078 332.227 170.625 331.953C171.172 331.68 171.445 331.406 171.992 331.133C172.539 330.859 173.086 330.859 173.633 330.586C174.727 330.312 175.82 330.312 176.914 330.586C177.461 330.586 178.008 330.859 178.555 331.133C179.102 331.406 179.648 331.68 179.922 331.953C180.469 332.227 180.742 332.5 181.289 333.047C181.563 333.32 182.109 333.867 182.383 334.141C182.656 334.688 182.93 334.961 183.203 335.508C183.477 336.055 183.477 336.602 183.75 337.148C183.75 337.695 184.023 338.242 184.023 338.789C184.023 340.977 183.203 343.164 181.562 344.531C181.289 344.805 180.742 345.352 180.195 345.625C179.648 345.898 179.375 346.172 178.828 346.445C178.281 346.719 177.734 346.719 177.188 346.992C176.094 347.266 175.547 347.266 175 347.266Z" fill="black"/>
<path d="M128.516 79.2969C113.477 79.2969 101.172 66.9922 101.172 51.9531C101.172 36.9141 113.477 24.6094 128.516 24.6094C143.555 24.6094 155.859 36.9141 155.859 51.9531C155.859 66.9922 143.555 79.2969 128.516 79.2969ZM128.516 41.0156C122.5 41.0156 117.578 45.9375 117.578 51.9531C117.578 57.9688 122.5 62.8906 128.516 62.8906C134.531 62.8906 139.453 57.9688 139.453 51.9531C139.453 45.9375 134.531 41.0156 128.516 41.0156ZM142.188 207.812H101.172C98.9844 207.812 96.7969 208.633 95.4297 210.273L70 235.703C66.1719 233.789 61.7969 232.695 57.4219 232.695C42.3828 232.695 30.0781 245 30.0781 260.039C30.0781 275.078 42.3828 287.383 57.4219 287.383C72.4609 287.383 84.7656 275.078 84.7656 260.039C84.7656 255.391 83.6719 251.289 81.7578 247.461L104.727 224.492H142.188C146.836 224.492 150.391 220.938 150.391 216.289C150.391 211.641 146.836 207.812 142.188 207.812ZM57.4219 270.703C51.4062 270.703 46.4844 265.781 46.4844 259.766C46.4844 253.75 51.4062 248.828 57.4219 248.828C63.4375 248.828 68.3594 253.75 68.3594 259.766C68.3594 265.781 63.4375 270.703 57.4219 270.703ZM142.188 166.797H58.7891C55.2344 155.586 44.8438 147.656 32.8125 147.656C17.7734 147.656 5.46875 159.961 5.46875 175C5.46875 190.039 17.7734 202.344 32.8125 202.344C45.1172 202.344 55.5078 194.414 58.7891 183.203H142.188C146.836 183.203 150.391 179.648 150.391 175C150.391 170.352 146.836 166.797 142.188 166.797ZM32.8125 185.938C26.7969 185.938 21.875 181.016 21.875 175C21.875 168.984 26.7969 164.062 32.8125 164.062C38.8281 164.062 43.75 168.984 43.75 175C43.75 181.016 38.8281 185.938 32.8125 185.938ZM57.4219 117.578C62.0703 117.578 66.1719 116.484 70 114.57L95.4297 140C97.0703 141.641 98.9844 142.461 101.172 142.461H142.188C146.836 142.461 150.391 138.906 150.391 134.258C150.391 129.609 146.836 126.055 142.188 126.055H104.453L81.4844 103.086C83.3984 99.2578 84.4922 94.8828 84.4922 90.5078C84.4922 75.4687 72.1875 63.1641 57.1484 63.1641C42.1094 63.1641 29.8047 75.4687 29.8047 90.5078C29.8047 105.547 42.3828 117.578 57.4219 117.578ZM57.4219 79.2969C63.4375 79.2969 68.3594 84.2188 68.3594 90.2344C68.3594 96.25 63.4375 101.172 57.4219 101.172C51.4062 101.172 46.4844 96.25 46.4844 90.2344C46.4844 84.2188 51.4062 79.2969 57.4219 79.2969Z" fill="#2DAC23"/>
<path d="M128.516 325.391C113.477 325.391 101.172 313.086 101.172 298.047C101.172 283.008 113.477 270.703 128.516 270.703C143.555 270.703 155.859 283.008 155.859 298.047C155.859 313.086 143.555 325.391 128.516 325.391ZM128.516 287.109C122.5 287.109 117.578 292.031 117.578 298.047C117.578 304.062 122.5 308.984 128.516 308.984C134.531 308.984 139.453 304.062 139.453 298.047C139.453 292.031 134.531 287.109 128.516 287.109Z" fill="#2DAC23"/>
</svg>
