<svg width="180" height="180" viewBox="0 0 180 180" fill="none" xmlns="http://www.w3.org/2000/svg">
<path d="M68.9062 19.9688C61.7344 19.9688 55.6875 24.3281 53.1562 30.6562C51.4688 30.0937 49.6406 29.8125 47.8125 29.8125C37.6875 29.8125 29.5312 37.9688 29.5312 48.0938C29.5312 48.0938 29.5312 48.0937 29.5312 48.2344C20.6719 50.2031 13.9219 58.0781 13.9219 67.5C13.9219 70.3125 14.4844 72.9844 15.6094 75.5156C10.2656 80.2969 7.03125 87.1875 7.03125 94.5C7.03125 95.3437 7.03125 96.0469 7.17187 96.75C7.17187 96.8906 7.17187 97.0312 7.17187 97.1719C7.3125 97.875 7.3125 98.7187 7.45313 99.4219C7.45313 99.5625 7.45313 99.5625 7.45313 99.7031C7.59375 100.406 7.73437 101.109 8.01562 101.812V101.953C8.29687 102.656 8.57813 103.359 8.85938 104.203C8.85938 104.203 8.85938 104.344 9 104.344C9.5625 105.75 10.4062 107.156 11.25 108.422C11.25 108.422 11.25 108.562 11.3906 108.562C12.2344 109.828 13.2187 110.953 14.3437 112.078C14.4844 112.219 14.4844 112.219 14.625 112.359C15.1875 112.781 15.6094 113.344 16.1719 113.766C16.3125 113.906 16.4531 114.047 16.5938 114.047C17.0156 114.328 17.4375 114.609 17.8594 114.891C18.1406 115.031 18.2812 115.172 18.5625 115.453L18.7031 115.594C18.8438 115.594 18.8438 115.734 18.9844 115.734C22.9219 118.125 27.4219 119.531 32.3438 119.531C46.2656 119.531 57.6562 108.141 57.6562 94.2188V87.1875C57.6562 84.7969 55.8281 82.9688 53.4375 82.9688C51.0469 82.9688 49.2188 84.7969 49.2188 87.1875V94.2188C49.2188 103.5 41.625 111.094 32.3438 111.094C28.9688 111.094 25.875 110.109 23.2031 108.422C22.0781 107.719 20.9531 106.875 20.1094 105.891C19.9688 105.75 19.8281 105.609 19.8281 105.469C19.5469 105.188 19.2656 104.766 18.9844 104.344C18.8438 104.203 18.7031 104.062 18.5625 103.781C18.2812 103.359 18 102.938 17.7188 102.516C17.7188 102.375 17.5781 102.375 17.5781 102.234C17.2969 101.672 17.0156 101.109 16.7344 100.547C16.5937 100.406 16.5938 100.125 16.4531 99.9844C16.3125 99.5625 16.1719 99.1406 16.0312 98.7187C16.0312 98.4375 15.8906 98.2969 15.8906 98.0156C15.75 97.5937 15.75 97.1719 15.6094 96.75C15.6094 96.6094 15.6094 96.3281 15.4688 96.1875C15.4688 95.9062 15.4688 95.2031 15.4688 94.5C15.4688 88.7344 18.4219 83.3906 23.3438 80.2969C24.8906 79.3125 25.5938 77.4844 25.1719 75.6562C25.0312 75.0937 24.8906 74.3906 24.4688 73.8281C23.0625 71.8594 22.3594 69.75 22.3594 67.3594C22.3594 61.875 26.2969 57.375 31.5 56.25C34.5938 62.1562 40.6406 66.2344 47.8125 66.2344C50.2031 66.2344 52.0312 64.4062 52.0312 62.0156C52.0312 59.625 50.2031 57.7969 47.8125 57.7969C43.4531 57.7969 39.6562 54.8438 38.3906 50.9062C38.25 50.4844 38.1094 50.0625 38.1094 49.6406C38.1094 49.5 38.1094 49.5 38.1094 49.3594C38.1094 48.9375 37.9688 48.5156 37.9688 47.9531C37.9688 42.4687 42.3281 38.1094 47.8125 38.1094C49.9219 38.1094 52.0312 38.8125 53.7188 40.0781C54.9844 41.0625 56.6719 41.2031 58.0781 40.5C59.4844 39.7969 60.4688 38.3906 60.4688 36.7031C60.4688 36.7031 60.4688 36.7031 60.4688 36.5625C60.4688 31.9219 64.2656 28.2656 68.9062 28.2656C73.5469 28.2656 77.3438 32.0625 77.3438 36.7031V136.547C77.3438 145.828 69.75 153.422 60.4688 153.422C53.2969 153.422 46.9688 148.922 44.5781 142.172C44.0156 140.344 42.1875 139.219 40.3594 139.359H39.9375C39.7969 139.359 39.5156 139.359 39.375 139.359C30.0938 139.359 22.5 131.766 22.5 122.484C22.5 120.094 20.6719 118.266 18.2812 118.266C15.8906 118.266 14.0625 120.094 14.0625 122.484C14.0625 135.844 24.6094 146.953 37.8281 147.797C42.0469 156.375 50.7656 161.859 60.4688 161.859C74.3906 161.859 85.7812 150.469 85.7812 136.547V36.7031C85.7812 27.5625 78.1875 19.9688 68.9062 19.9688Z" fill="#2DAC23"/>
<path d="M28.125 81H21.0938C18.7031 81 16.875 79.1719 16.875 76.7812C16.875 74.3906 18.7031 72.5625 21.0938 72.5625H28.125C30.5156 72.5625 32.3438 74.3906 32.3438 76.7812C32.3438 79.1719 30.5156 81 28.125 81Z" fill="#2DAC23"/>
<path d="M136.406 130.781C135.281 130.781 134.297 130.359 133.453 129.516L119.25 115.312H99.8438C97.4531 115.312 95.625 113.484 95.625 111.094C95.625 108.703 97.4531 106.875 99.8438 106.875H120.938C122.062 106.875 123.187 107.297 123.891 108.141L139.359 123.609C141.047 125.297 141.047 127.969 139.359 129.516C138.516 130.359 137.531 130.781 136.406 130.781ZM120.938 73.125H99.8438C97.4531 73.125 95.625 71.2969 95.625 68.9062C95.625 66.5156 97.4531 64.6875 99.8438 64.6875H119.25L133.453 50.4844C135.141 48.7969 137.812 48.7969 139.359 50.4844C141.047 52.1719 141.047 54.8437 139.359 56.3906L123.891 71.8594C123.187 72.7031 122.062 73.125 120.938 73.125ZM146.25 94.2187H99.8438C97.4531 94.2187 95.625 92.3906 95.625 90C95.625 87.6094 97.4531 85.7812 99.8438 85.7812H146.25C148.641 85.7812 150.469 87.6094 150.469 90C150.469 92.3906 148.641 94.2187 146.25 94.2187Z" fill="#2DAC23"/>
<path d="M156.094 104.062C148.359 104.062 142.031 97.7344 142.031 90C142.031 82.2656 148.359 75.9375 156.094 75.9375C163.828 75.9375 170.156 82.2656 170.156 90C170.156 97.7344 163.828 104.062 156.094 104.062ZM156.094 84.375C153 84.375 150.469 86.9062 150.469 90C150.469 93.0938 153 95.625 156.094 95.625C159.188 95.625 161.719 93.0938 161.719 90C161.719 86.9062 159.188 84.375 156.094 84.375ZM143.438 60.4688C135.703 60.4688 129.375 54.1406 129.375 46.4062C129.375 38.6719 135.703 32.3438 143.438 32.3438C151.172 32.3438 157.5 38.6719 157.5 46.4062C157.5 54.1406 151.172 60.4688 143.438 60.4688ZM143.438 40.7812C140.344 40.7812 137.812 43.3125 137.812 46.4062C137.812 49.5 140.344 52.0312 143.438 52.0312C146.531 52.0312 149.062 49.5 149.062 46.4062C149.062 43.3125 146.531 40.7812 143.438 40.7812ZM106.875 40.7812C99.1406 40.7812 92.8125 34.4531 92.8125 26.7188C92.8125 18.9844 99.1406 12.6562 106.875 12.6562C114.609 12.6562 120.938 18.9844 120.938 26.7188C120.938 34.4531 114.609 40.7812 106.875 40.7812ZM106.875 21.0938C103.781 21.0938 101.25 23.625 101.25 26.7188C101.25 29.8125 103.781 32.3438 106.875 32.3438C109.969 32.3438 112.5 29.8125 112.5 26.7188C112.5 23.625 109.969 21.0938 106.875 21.0938ZM143.438 147.656C135.703 147.656 129.375 141.328 129.375 133.594C129.375 125.859 135.703 119.531 143.438 119.531C151.172 119.531 157.5 125.859 157.5 133.594C157.5 141.328 151.172 147.656 143.438 147.656ZM143.438 127.969C140.344 127.969 137.812 130.5 137.812 133.594C137.812 136.688 140.344 139.219 143.438 139.219C146.531 139.219 149.062 136.688 149.062 133.594C149.062 130.5 146.531 127.969 143.438 127.969ZM106.875 167.344C99.1406 167.344 92.8125 161.016 92.8125 153.281C92.8125 145.547 99.1406 139.219 106.875 139.219C114.609 139.219 120.938 145.547 120.938 153.281C120.938 161.016 114.609 167.344 106.875 167.344ZM106.875 147.656C103.781 147.656 101.25 150.188 101.25 153.281C101.25 156.375 103.781 158.906 106.875 158.906C109.969 158.906 112.5 156.375 112.5 153.281C112.5 150.188 109.969 147.656 106.875 147.656Z" fill="#2DAC23"/>
</svg>
